REM DIRINDEX 1\2,1\3,1\4
REM DIRNAME cjc151,folder01,folder02,folder03
TITLE ""
FILE "038 038_TOEFL_3900.mp3" MP3
  TRACK 01 AUDIO
    TITLE "2:cjc151_1638"
    INDEX 01 00:00:00
  TRACK 02 AUDIO
    TITLE "0:"
    INDEX 01 00:01:32
  TRACK 03 AUDIO
    TITLE "3:cjc151_1639"
    INDEX 01 00:03:12
  TRACK 04 AUDIO
    TITLE "0:"
    INDEX 01 00:07:41
  TRACK 05 AUDIO
    TITLE "2:cjc151_1640"
    INDEX 01 00:09:20
  TRACK 06 AUDIO
    TITLE "0:"
    INDEX 01 00:10:25
  TRACK 07 AUDIO
    TITLE "3:cjc151_1641"
    INDEX 01 00:12:07
  TRACK 08 AUDIO
    TITLE "0:"
    INDEX 01 00:15:42
  TRACK 09 AUDIO
    TITLE "2:cjc151_1642"
    INDEX 01 00:17:21
  TRACK 10 AUDIO
    TITLE "0:"
    INDEX 01 00:18:33
  TRACK 11 AUDIO
    TITLE "3:cjc151_1643"
    INDEX 01 00:20:10
  TRACK 12 AUDIO
    TITLE "0:"
    INDEX 01 00:25:25
  TRACK 13 AUDIO
    TITLE "2:cjc151_1644"
    INDEX 01 00:27:04
  TRACK 14 AUDIO
    TITLE "0:"
    INDEX 01 00:28:21
  TRACK 15 AUDIO
    TITLE "3:cjc151_1645"
    INDEX 01 00:29:74
  TRACK 16 AUDIO
    TITLE "0:"
    INDEX 01 00:34:38
  TRACK 17 AUDIO
    TITLE "2:cjc151_1646"
    INDEX 01 00:36:15
  TRACK 18 AUDIO
    TITLE "0:"
    INDEX 01 00:37:20
  TRACK 19 AUDIO
    TITLE "3:cjc151_1647"
    INDEX 01 00:38:69
  TRACK 20 AUDIO
    TITLE "0:"
    INDEX 01 00:42:31
  TRACK 21 AUDIO
    TITLE "2:cjc151_1648"
    INDEX 01 00:44:18
  TRACK 22 AUDIO
    TITLE "0:"
    INDEX 01 00:45:24
  TRACK 23 AUDIO
    TITLE "3:cjc151_1649"
    INDEX 01 00:47:01
  TRACK 24 AUDIO
    TITLE "0:"
    INDEX 01 00:50:37
  TRACK 25 AUDIO
    TITLE "2:cjc151_1650"
    INDEX 01 00:52:14
  TRACK 26 AUDIO
    TITLE "0:"
    INDEX 01 00:53:06
  TRACK 27 AUDIO
    TITLE "3:cjc151_1651"
    INDEX 01 00:54:58
  TRACK 28 AUDIO
    TITLE "0:"
    INDEX 01 00:58:24
  TRACK 29 AUDIO
    TITLE "2:cjc151_1652"
    INDEX 01 01:00:04
  TRACK 30 AUDIO
    TITLE "0:"
    INDEX 01 01:01:15
  TRACK 31 AUDIO
    TITLE "3:cjc151_1653"
    INDEX 01 01:02:69
  TRACK 32 AUDIO
    TITLE "0:"
    INDEX 01 01:06:45
  TRACK 33 AUDIO
    TITLE "2:cjc151_1654"
    INDEX 01 01:08:23
  TRACK 34 AUDIO
    TITLE "0:"
    INDEX 01 01:09:36
  TRACK 35 AUDIO
    TITLE "3:cjc151_1655"
    INDEX 01 01:11:13
  TRACK 36 AUDIO
    TITLE "0:"
    INDEX 01 01:14:61
  TRACK 37 AUDIO
    TITLE "2:cjc151_1656"
    INDEX 01 01:16:38
  TRACK 38 AUDIO
    TITLE "0:"
    INDEX 01 01:17:63
  TRACK 39 AUDIO
    TITLE "3:cjc151_1657"
    INDEX 01 01:19:40
  TRACK 40 AUDIO
    TITLE "0:"
    INDEX 01 01:23:05
  TRACK 41 AUDIO
    TITLE "2:cjc151_1658"
    INDEX 01 01:24:59
  TRACK 42 AUDIO
    TITLE "0:"
    INDEX 01 01:25:62
  TRACK 43 AUDIO
    TITLE "3:cjc151_1659"
    INDEX 01 01:27:44
  TRACK 44 AUDIO
    TITLE "0:"
    INDEX 01 01:30:26
  TRACK 45 AUDIO
    TITLE "2:cjc151_1660"
    INDEX 01 01:32:04
  TRACK 46 AUDIO
    TITLE "0:"
    INDEX 01 01:33:17
  TRACK 47 AUDIO
    TITLE "3:cjc151_1661"
    INDEX 01 01:34:71
  TRACK 48 AUDIO
    TITLE "0:"
    INDEX 01 01:38:63
  TRACK 49 AUDIO
    TITLE "2:cjc151_1662"
    INDEX 01 01:40:40
  TRACK 50 AUDIO
    TITLE "0:"
    INDEX 01 01:41:44
  TRACK 51 AUDIO
    TITLE "3:cjc151_1663"
    INDEX 01 01:43:23
  TRACK 52 AUDIO
    TITLE "0:"
    INDEX 01 01:47:46
  TRACK 53 AUDIO
    TITLE "2:cjc151_1664"
    INDEX 01 01:49:24
  TRACK 54 AUDIO
    TITLE "0:"
    INDEX 01 01:50:31
  TRACK 55 AUDIO
    TITLE "3:cjc151_1665"
    INDEX 01 01:52:08
  TRACK 56 AUDIO
    TITLE "0:"
    INDEX 01 01:55:36
  TRACK 57 AUDIO
    TITLE "2:cjc151_1666"
    INDEX 01 01:57:15
  TRACK 58 AUDIO
    TITLE "0:"
    INDEX 01 01:58:40
  TRACK 59 AUDIO
    TITLE "3:cjc151_1667"
    INDEX 01 02:00:18
  TRACK 60 AUDIO
    TITLE "0:"
    INDEX 01 02:04:35
  TRACK 61 AUDIO
    TITLE "2:cjc151_1668"
    INDEX 01 02:06:14
  TRACK 62 AUDIO
    TITLE "0:"
    INDEX 01 02:07:04
  TRACK 63 AUDIO
    TITLE "3:cjc151_1669"
    INDEX 01 02:08:58
  TRACK 64 AUDIO
    TITLE "0:"
    INDEX 01 02:13:30
  TRACK 65 AUDIO
    TITLE "2:cjc151_1670"
    INDEX 01 02:15:09
  TRACK 66 AUDIO
    TITLE "0:"
    INDEX 01 02:16:24
  TRACK 67 AUDIO
    TITLE "3:cjc151_1671"
    INDEX 01 02:18:04
  TRACK 68 AUDIO
    TITLE "0:"
    INDEX 01 02:22:07
  TRACK 69 AUDIO
    TITLE "2:cjc151_1672"
    INDEX 01 02:23:62
  TRACK 70 AUDIO
    TITLE "0:"
    INDEX 01 02:26:41
  TRACK 71 AUDIO
    TITLE "3:cjc151_1673"
    INDEX 01 02:28:18
  TRACK 72 AUDIO
    TITLE "0:"
    INDEX 01 02:32:06
  TRACK 73 AUDIO
    TITLE "2:cjc151_1674"
    INDEX 01 02:33:58
  TRACK 74 AUDIO
    TITLE "0:"
    INDEX 01 02:35:02
  TRACK 75 AUDIO
    TITLE "3:cjc151_1675"
    INDEX 01 02:36:57
  TRACK 76 AUDIO
    TITLE "0:"
    INDEX 01 02:41:58
  TRACK 77 AUDIO
    TITLE "2:cjc151_1676"
    INDEX 01 02:43:31
  TRACK 78 AUDIO
    TITLE "0:"
    INDEX 01 02:44:50
  TRACK 79 AUDIO
    TITLE "3:cjc151_1677"
    INDEX 01 02:46:30
  TRACK 80 AUDIO
    TITLE "0:"
    INDEX 01 02:50:16
  TRACK 81 AUDIO
    TITLE "2:cjc151_1678"
    INDEX 01 02:51:72
  TRACK 82 AUDIO
    TITLE "0:"
    INDEX 01 02:53:00
  TRACK 83 AUDIO
    TITLE "3:cjc151_1679"
    INDEX 01 02:54:54
  TRACK 84 AUDIO
    TITLE "0:"
    INDEX 01 02:58:11
  TRACK 85 AUDIO
    TITLE "2:cjc151_1680"
    INDEX 01 02:59:65
  TRACK 86 AUDIO
    TITLE "0:"
    INDEX 01 03:00:69
  TRACK 87 AUDIO
    TITLE "3:cjc151_1681"
    INDEX 01 03:02:46
  TRACK 88 AUDIO
    TITLE "0:"
    INDEX 01 03:06:48
